<?xml version="1.0" encoding="utf-8"?>
<?xml-stylesheet type="text/xsl" href="rss1.xsl"?>
<rss version="2.0" xmlns:atom="http://www.w3.org/2005/Atom" xmlns:content="http://purl.org/rss/1.0/modules/content/" xmlns:dc="http://purl.org/dc/elements/1.1/" xmlns:media="http://search.yahoo.com/mrss/">
<channel>
 <title>Getty</title>
 <link>http://www.gettyimg.com/</link>
 <atom:link href="http://www.gettyimg.com/" rel="self" type="application/rss+xml" />

 
                <item>
                <title><![CDATA[【UPSCALED】Taylor Swift - Bejeweled | HDR 4K 60P[AI] PCM FROM PRORES]]></title>
                <link><![CDATA[https://sharemania.us/threads/taylor-swift-bejeweled-hdr-4k-60p-ai-pcm-from-prores.235834/]]></link>
                <description><![CDATA[<article>
<blockquote class="messageText SelectQuoteContainer ugc baseHtml">
<div style="text-align: center"><i><b><span style="font-size: 18px">AI enhanced to 4K 60fps , I personally make HDR.</span></b></i><br>
<b><span style="font-size: 18px">scoure from</span></b> prores<br>
<div class="ToggleTriggerAnchor bbCodeSpoilerContainer">
<button type="button" class="button bbCodeSpoilerButton ToggleTrigger Tooltip JsOnly" data-target="> .SpoilerTarget"><span>Spoiler: <span class="SpoilerTitle">After upscale Mediainfo</span></span></button>
<div class="SpoilerTarget bbCodeSpoilerText"><div style="text-align: left">Bejeweled.mov<br>
Format : MPEG-4<br>
Format profile : QuickTime<br>
Codec ID : qt 0000.02 (qt )<br>
File size : 5.86 GiB<br>
Duration : 5 min 53 s<br>
Overall bit rate : 142 Mb/s<br>
Frame rate : 60.000 FPS<br>
Encoded date : 2024-01-14 09:06:31 UTC<br>
Tagged date : 2024-01-14 09:06:31 UTC<br>
Writing application : Blackmagic Design DaVinci Resolve Studio<br>
Video<br>
ID : 1<br>
Format : HEVC<br>
Format/Info : High Efficiency Video Coding<br>
Format profile : Main 10@L5.1@High<br>
Codec ID : hvc1<br>
Codec ID/Info : High Efficiency Video Coding<br>
Duration : 5 min 53 s<br>
Bit rate : 140 Mb/s<br>
Width : 3 840 pixels<br>
Height : 2 160 pixels<br>
Display aspect ratio : 16:9<br>
Frame rate mode : Constant<br>
Frame rate : 60.000 FPS<br>
Color space : YUV<br>
Chroma subsampling : 4:2:0<br>
Bit depth : 10 bits<br>
Scan type : Progressive<br>
Bits/(Pixel*Frame) : 0.281<br>
Stream size : 5.77 GiB (98%)<br>
Encoded date : 2024-01-14 09:06:31 UTC<br>
Tagged date : 2024-01-14 09:06:31 UTC<br>
Color range : Limited<br>
Color primaries : BT.2020<br>
Transfer characteristics : PQ<br>
Matrix coefficients : BT.2020 non-constant<br>
Codec configuration box : hvcC<br>
Audio<br>
ID : 2<br>
Format : PCM<br>
Format settings : Little / Signed<br>
Codec ID : lpcm<br>
Duration : 5 min 53 s<br>
Bit rate mode : Constant<br>
Bit rate : 2 304 kb/s<br>
Channel(s) : 2 channels<br>
Channel layout : L R<br>
Sampling rate : 48.0 kHz<br>
Bit depth : 24 bits<br>
Stream size : 97.1 MiB (2%)<br>
Default : Yes<br>
Alternate group : 1<br>
Encoded date : 2024-01-14 09:06:31 UTC<br>
Tagged date : 2024-01-14 09:06:31 UTC​</div></div>
</div><div style="text-align: center"><i><i>HEVC 420 10bit.</i></i>​</div><i><div style="text-align: center"><i><i>Mac player: quicktime,infuse</i></i>​</div><i><div style="text-align: center"><i><i>Window player: potplayer,mpv<br>
<br>
<b><span style="font-size: 15px">preview:</span></b><br>
<span data-s9e-mediaembed="youtube" style="display:inline-block;width:100%;max-width:640px"><span style="display:block;overflow:hidden;position:relative;padding-bottom:56.25%"><iframe allowfullscreen="" loading="lazy" scrolling="no" style="background:url(https://i.ytimg.com/vi/dEbpV-EBB5o/hqdefault.jpg) 50% 50% / cover;border:0;height:100%;left:0;position:absolute;width:100%" src="https://www.youtube.com/embed/dEbpV-EBB5o"></iframe></span></span></i></i>​</div></i></i><br>
<b>mega</b><br>
<i>
<div class="bbCodeBlock bbCodeVfcHH HiddenContent">
<div class="attribution type">Hidden Content:</div>
<blockquote>You must reply before you can see the hidden data contained here.</blockquote>
</div>Tip: If mega reaches the traffic limit, change the IP to reset the traffic<br>
<div style="text-align: center"><br>
<b>onedrive</b><br>
<div class="bbCodeBlock bbCodeVfcHH HiddenContent">
<div class="attribution type">Hidden Content:</div>
<blockquote>You must reply before you can see the hidden data contained here.</blockquote>
</div><i>About onedrive: If it cannot be downloaded, it may have exceeded the shared traffic limit. It will be reset after about 6 hours.If it still doesn't work, you are out of luck. Someone has used up the data before you. You can only wait another 6 hours.</i>​</div><br>
<br>
<br>
<br>
</i>​</div>
<div class="messageTextEndMarker">&nbsp;</div>
</blockquote>
</article>]]></description>
                <author><![CDATA[pcyiiu]]></author>
                </item>

                </channel></rss>